<svg version="1.1" xmlns="http://www.w3.org/2000/svg" style="display: block;" viewBox="0 0 1792 1208" width="448" height="302" preserveAspectRatio="none">
<path transform="translate(0,0)" fill="rgb(255,255,255)" d="M 0 0 L 1792 0 L 1792 1208 L 0 1208 L 0 0 z"/>
<path transform="translate(0,0)" fill="rgb(0,0,0)" d="M 697.076 630.798 C 721.547 591.408 744.139 552.62 767.98 513.003 L 881.995 324.301 C 899.08 295.996 915.598 267.171 932.845 239.067 C 947.704 215.87 962.152 190.682 981.452 170.863 C 1037.81 112.991 1119.62 123.541 1193.03 123.004 C 1254.06 122.556 1315.25 123.678 1376.3 123.011 C 1343.37 177.356 1309.18 228.703 1274.68 282.048 L 1137.83 494.759 L 1078.48 587.009 C 1068.69 602.221 1054.93 622.309 1046.31 637.794 C 1004.49 602.976 992.995 583.15 973.94 532.222 L 1080.87 365.705 C 1105.17 328.033 1131.53 289.447 1153.73 250.769 C 1129.89 249.872 1100.06 248.175 1077.3 254.679 C 1065.74 257.981 1058.73 263.001 1051.82 272.537 C 1037.52 292.284 1025.1 314.525 1012.58 335.497 L 947.751 443.828 L 856.856 595.134 C 836.847 628.201 814.027 663.693 796.328 697.602 C 832.287 742.771 849.43 724.432 876.391 685.334 C 895.421 714.581 913.498 736.482 940.29 759.059 C 945.049 763.07 952.058 769.952 956.761 773.259 C 912.013 832.837 838.938 851.316 770.453 821.024 C 749.094 811.576 723.541 791.698 710.171 772.371 C 667.454 780.149 634.126 773.362 604.42 740.055 C 590.97 724.974 582.164 708.673 571.684 691.582 L 539.807 640.321 L 419.213 444.778 C 438.306 445.567 461.374 445.117 480.633 445.094 L 587.895 444.855 C 619.608 507.799 662.273 569.359 697.076 630.798 z"/>
<path transform="translate(0,0)" fill="rgb(83,76,217)" d="M 1234.31 444.839 C 1281.08 445.231 1327.86 445.206 1374.63 444.765 C 1309.39 561.192 1254.58 733.114 1127.37 792.201 C 1080.57 810.42 1046.85 808.238 1000.14 792.734 C 1015.95 773.356 1031.05 745.892 1044.48 725.204 C 1060.76 700.11 1061.09 695.134 1089.93 684.624 C 1095.86 682.464 1111.34 670.64 1115.86 665.597 C 1171.94 603.153 1202.41 521.071 1234.31 444.839 z"/>
<path transform="translate(0,0)" fill="rgb(83,76,217)" d="M 659.788 178.425 C 667.161 177.359 688.319 177.495 695.51 177.929 C 765.091 182.133 816.865 214.545 862.352 265.033 C 856.55 273.608 848.941 287.462 843.423 296.645 L 804.255 361.632 C 775.679 282.552 699.699 252.64 622.59 282.01 C 611.361 286.664 600.89 292.968 591.524 300.715 C 560.134 326.722 549.652 359.72 545.99 398.84 C 513.285 398.707 479.523 398.267 446.889 398.832 C 449.41 369.765 452.41 346.695 463.143 319.189 C 496.582 233.495 570.602 186.928 659.788 178.425 z"/>
<path transform="translate(0,0)" fill="rgb(0,0,0)" d="M 1409.06 925.418 C 1432.94 923.663 1454.13 927.024 1473.25 943.083 C 1507.56 971.887 1508.96 1041.52 1479.79 1074.24 C 1467.03 1088.35 1449.23 1096.86 1430.24 1097.94 C 1380.9 1101.8 1343.18 1079.74 1337.73 1026.83 C 1332.53 976.259 1352.12 930.325 1409.06 925.418 z"/>
<path transform="translate(0,0)" fill="rgb(255,255,255)" d="M 1414.8 956.323 C 1437.83 954.467 1456.63 968.819 1461 991.268 C 1467.34 1023.79 1461.43 1058.99 1424.36 1067.17 C 1372.43 1068.89 1362.63 1009.43 1384.67 972.812 C 1390.74 962.72 1403.48 957.969 1414.8 956.323 z"/>
<path transform="translate(0,0)" fill="rgb(0,0,0)" d="M 1534.23 927.471 L 1576.11 927.212 C 1578.83 941.426 1585.22 963.377 1589.13 977.764 C 1593.93 995.477 1599.36 1018.42 1605.05 1035.53 C 1611.71 1004.11 1624.92 959.539 1633.37 927.698 C 1650.33 926.927 1668.83 927.501 1686 927.393 L 1686.01 1095.91 L 1652.71 1096 C 1652.65 1062.89 1653.5 1025.78 1652.21 993.011 C 1652.24 986.613 1652.61 979.53 1652.82 973.079 C 1649.54 983.361 1645.48 1002.59 1642.66 1013.83 L 1622.18 1095.92 C 1610.6 1096.2 1598.29 1095.98 1586.66 1095.96 C 1584.84 1084.08 1580.84 1071.02 1578.04 1059.21 C 1571.5 1031.59 1562.89 1003.18 1557.32 975.434 C 1556.44 988.859 1556.92 1006.25 1556.92 1019.94 L 1556.99 1095.95 L 1523.09 1095.97 L 1523.08 990.804 C 1523.07 971.23 1522.43 947.219 1523.59 927.924 L 1534.23 927.471 z"/>
<path transform="translate(0,0)" fill="rgb(0,0,0)" d="M 653.965 927.469 C 662.256 927.234 670.95 927.324 679.276 927.286 C 684.118 936.919 692.233 948.625 697.834 958.15 C 712.805 983.607 730.507 1009.47 744.678 1035.26 C 744.515 999.469 744.669 963.681 745.138 927.896 C 755.759 927.247 767.4 927.344 778.039 927.386 L 778.036 1042.26 C 778.028 1050.28 778.995 1092.42 776.931 1095.62 L 774.25 1096.03 C 763.42 1096.09 752.589 1096.03 741.76 1095.84 C 722.815 1062.47 697.892 1024.87 677.532 991.529 C 679.062 1022.5 677.771 1064.14 677.73 1095.92 C 666.565 1096.07 655.205 1095.97 644.022 1095.98 L 643.968 982.929 C 643.965 972.623 643.319 937.939 644.75 929.112 C 647.305 927.253 650.613 927.598 653.965 927.469 z"/>
<path transform="translate(0,0)" fill="rgb(0,0,0)" d="M 121.955 927.47 C 130.262 927.235 138.935 927.32 147.274 927.286 C 152.069 936.818 159.907 948.082 165.432 957.499 C 180.475 983.137 198.452 1009.3 212.676 1035.26 C 212.511 999.469 212.665 963.681 213.14 927.896 C 223.254 927.176 235.813 927.347 246.041 927.378 L 246.035 1041.65 C 246.027 1049.91 246.965 1092.47 244.94 1095.62 L 242.25 1096.03 C 231.419 1096.09 220.588 1096.03 209.759 1095.85 C 191.016 1062.69 165.786 1024.69 145.537 991.544 C 147.052 1022.59 145.766 1064.1 145.722 1095.93 L 112.073 1096.01 L 111.975 984.591 C 111.969 974.095 111.301 938.082 112.748 929.111 C 115.305 927.253 118.604 927.598 121.955 927.47 z"/>
<path transform="translate(0,0)" fill="rgb(0,0,0)" d="M 523.497 927.286 C 534.201 927.846 550.075 927.302 561.408 927.515 L 603.809 1033.48 C 611.942 1053.79 620.992 1075.26 628.22 1095.81 C 615.05 1096.04 601.878 1096.08 588.707 1095.95 C 584.149 1083.28 579.014 1071.06 574.89 1058.19 L 563.161 1058.14 L 510.341 1058.06 C 506.341 1070.69 500.912 1083.16 497.245 1096.01 L 458.26 1095.9 C 478.353 1040.25 502.424 982.91 523.497 927.286 z"/>
<path transform="translate(0,0)" fill="rgb(255,255,255)" d="M 541.451 973.624 C 544.789 976.427 559.708 1019.74 562.832 1027.57 L 542.306 1027.91 L 521.568 1027.73 C 527.928 1013.34 535.855 989.069 541.451 973.624 z"/>
<path transform="translate(0,0)" fill="rgb(0,0,0)" d="M 955.251 927.493 L 983.751 927.305 C 983.602 949.178 983.664 971.051 983.938 992.923 C 1004.93 993.07 1025.92 993.021 1046.92 992.775 C 1046.91 971.7 1046.48 948.818 1047.35 927.898 C 1059.01 927.201 1071.21 927.373 1082.93 927.357 L 1082.91 1095.91 L 1070.25 1096.02 L 1046.97 1095.99 L 1046.97 1023.3 L 983.849 1023.3 C 982.926 1045.81 983.726 1073.06 983.794 1095.92 C 972.024 1096.15 959.76 1095.98 947.948 1095.99 C 947.163 1054.81 948.284 1013.24 947.827 972.023 C 947.678 958.608 947.065 942.196 948.385 929.137 C 950.773 927.326 951.893 927.792 955.251 927.493 z"/>
<path transform="translate(0,0)" fill="rgb(83,76,217)" d="M 942.161 580.996 C 960.412 621.099 987.652 649.511 1020.96 676.876 C 1002.92 704.589 976.963 749.156 956.761 773.259 C 952.058 769.952 945.049 763.07 940.29 759.059 C 913.498 736.482 895.421 714.581 876.391 685.334 C 890.043 660.308 908.882 634.224 924.003 609.73 C 929.554 600.739 937.356 590.113 942.161 580.996 z"/>
<path transform="translate(0,0)" fill="rgb(0,0,0)" d="M 1243.65 925.389 C 1285.3 921.601 1307.1 937.027 1321.04 975.258 C 1311.09 978.346 1294.79 982.011 1284.64 983.651 C 1284.03 981.673 1283.34 979.721 1282.57 977.798 C 1269.52 945.879 1225.17 950.822 1215.21 982.296 C 1208.84 1002.44 1208.89 1026.2 1217.12 1045.84 C 1224.62 1063.75 1246.67 1072.57 1264.2 1064.06 C 1276.93 1057.75 1281.56 1045.77 1285.92 1033.09 C 1291.67 1032.28 1313.43 1040.93 1321.55 1042.79 C 1317.63 1055.29 1314.41 1064.17 1306.31 1074.96 C 1283.38 1105.5 1230.97 1105.27 1202.59 1082.8 C 1166.41 1054.17 1165.17 985.929 1192.75 950.986 C 1205.34 935.029 1223.57 927.269 1243.65 925.389 z"/>
<path transform="translate(0,0)" fill="rgb(0,0,0)" d="M 323.731 927.505 C 330.027 928.081 353.532 927.354 361.524 927.498 L 402.252 1046.67 L 441.685 927.67 C 454.125 927.047 467.536 927.579 480.214 927.231 C 476.958 938.547 471.944 951.689 467.96 962.937 C 452.136 1007.06 435.653 1051.75 420.466 1096.04 C 407.549 1096.08 394.633 1096.03 381.717 1095.88 C 375.677 1076.86 322.403 933.956 323.731 927.505 z"/>
<path transform="translate(0,0)" fill="rgb(0,0,0)" d="M 805.906 927.457 C 847.042 927.006 888.869 927.403 930.061 927.419 L 930.097 957.972 L 881.147 958.021 C 880.668 990.129 881.092 1023.31 881.088 1055.5 L 881.07 1095.95 L 845.104 1096 L 845.013 958.111 L 795.947 957.956 C 796.027 948.39 793.765 937.028 797.261 929.368 C 800.521 926.94 801.048 927.725 805.906 927.457 z"/>
<path transform="translate(0,0)" fill="rgb(0,0,0)" d="M 282.564 927.476 L 310.504 927.243 C 310.318 945.198 312.541 1088.31 310.003 1095.47 L 307.25 1096 L 274.657 1095.99 L 274.695 985.44 C 274.697 970.676 273.841 942.474 275.305 929.12 C 277.266 927.254 279.239 927.753 282.564 927.476 z"/>
<path transform="translate(0,0)" fill="rgb(0,0,0)" d="M 1115.99 1062.09 C 1126.79 1061.64 1138.88 1061.91 1149.78 1061.92 C 1149.87 1073.01 1150.19 1084.91 1149.61 1095.92 C 1138.36 1096.13 1126.63 1095.96 1115.33 1095.97 C 1115.24 1084.88 1114.93 1073.08 1115.99 1062.09 z"/>
</svg>